<svg width="1254" height="1254" version="1.1" xmlns="http://www.w3.org/2000/svg" desc="Created with imagetracer.js version 1.2.6" ><path fill="rgb(0,0,0)" stroke="rgb(0,0,0)" stroke-width="1" opacity="0" d="M 0 0 L 1254 0 L 1254 1254 L 0 1254 L 0 0 Z M 625 189 L 625 193 L 621 202 L 602 234 L 602 236 L 582 267 L 562 294 Q 563 296 560 295 L 560 298 L 521 348 L 518 349 L 517 352 Q 518 354 515 353 L 513 358 L 487 390 L 484 391 L 474 405 Q 475 407 472 406 L 411 487 L 387 525 L 368 562 L 350 607 L 338 650 L 332 684 L 332 692 L 331 693 L 330 728 L 330 730 L 329 735 Q 332 740 330 751 L 329 752 L 122 752 L 121 753 L 95 753 L 90 759 Q 89 764 92 766 L 97 768 L 174 768 L 175 769 Q 181 771 183 768 L 328 768 L 331 769 L 332 771 L 334 789 L 339 811 L 341 815 L 342 823 L 354 855 L 376 896 Q 386 913 400 927 Q 399 929 402 928 L 412 940 Q 414 939 413 942 L 428 955 Q 430 954 429 957 Q 451 976 477 991 L 502 1004 L 526 1014 L 569 1026 L 574 1026 L 586 1029 L 602 1030 L 603 1031 L 652 1031 L 654 1031 L 655 1030 L 670 1029 L 687 1026 L 737 1011 L 783 988 L 817 964 L 824 957 Q 826 958 825 955 L 837 946 Q 836 943 839 944 L 848 934 Q 847 931 850 932 L 859 922 L 879 894 L 897 861 L 904 845 L 913 817 L 919 791 L 921 771 L 924 768 L 951 768 L 952 769 L 960 769 L 961 768 Q 966 767 968 769 L 1009 769 L 1010 768 Q 1014 767 1016 769 L 1066 768 L 1068 768 L 1071 769 L 1075 768 L 1162 768 L 1165 766 L 1166 765 L 1166 757 L 1161 753 L 1102 753 L 1101 752 Q 1096 751 1095 753 L 1083 753 L 1082 752 L 1077 753 L 1073 752 L 924 752 L 924 707 L 923 706 L 922 686 L 913 638 L 903 604 L 882 553 L 867 527 L 866 523 L 828 465 L 825 463 L 824 460 L 816 450 Q 817 447 814 448 L 813 445 L 786 412 Q 787 409 784 410 L 774 396 L 737 352 L 736 349 Q 706 313 679 275 L 649 229 L 629 191 L 629 189 L 625 189 Z " /><path fill="rgb(0,0,0)" stroke="rgb(0,0,0)" stroke-width="1" opacity="0" d="M 625.5 399 L 631.5 400 L 637 404.5 L 641 410.5 L 644 419.5 L 646 435.5 L 648 441.5 L 648 449.5 L 649 450.5 L 650 465.5 L 652 473.5 L 652 481.5 L 653 482.5 L 653 490.5 L 656 507.5 L 657 524.5 L 659 532.5 L 661 556.5 L 663 562.5 L 665 586.5 L 667 592.5 L 669 613.5 L 671 619.5 L 671 625.5 L 675 642.5 L 675 647.5 L 687 692.5 L 695.5 707 L 698.5 709 Q 700.4 712.6 706.5 712 Q 713.7 710.2 717 704.5 Q 724.2 691.2 735.5 682 Q 740.5 676.5 752.5 678 Q 762.5 681.5 768 689.5 Q 778.4 704.1 786 721.5 L 794.5 732 Q 799.5 738 811.5 737 L 829.5 725 Q 834.5 722 843.5 723 L 856.5 729 L 878.5 747 Q 885.5 752.5 897.5 753 L 902 756.5 L 903 759.5 L 899.5 765 L 886.5 764 L 872.5 759 L 850.5 740 Q 846 735.5 835.5 737 L 821.5 747 L 807.5 751 L 797.5 749 L 787 743 L 785.5 740 L 783 738.5 L 781 735.5 L 754.5 693 L 750.5 691 L 748.5 692 L 746.5 692 L 743.5 692 L 740 694 L 728 711.5 L 719.5 720 L 711.5 724 L 699.5 724 Q 691 721.5 686 715.5 L 675 697.5 L 667 671.5 L 656 615.5 L 656 608.5 L 654 601.5 L 651 573.5 L 650 572.5 L 650 564.5 L 648 556.5 L 648 554.5 L 645 522.5 L 642 505.5 L 639 469.5 L 637 462.5 L 637 455.5 L 636 454.5 L 633 429.5 L 629 414 L 625 414 L 625 415.5 L 619 442.5 L 614 488.5 L 613 489.5 L 613 498.5 L 611 504.5 L 611 506.5 L 609 532.5 L 607 539.5 L 605 565.5 L 603 572.5 L 603 574.5 L 602 589.5 L 599 602.5 L 598 615.5 L 586 674.5 L 579 697.5 L 567 717 L 557.5 723 L 548.5 725 Q 533.8 721.8 526 711.5 L 512.5 693 L 505.5 691 L 503.5 691 L 498 694 L 475 733.5 L 464.5 744 Q 457.5 751 442.5 750 L 431.5 746 L 419.5 737 L 411.5 736 L 404.5 739 L 390.5 752 L 387 753 Q 388.1 755.7 385.5 755 Q 377.8 761.3 366.5 764 L 364.5 764 Q 357.6 764.7 355 762 L 354 756.5 L 375.5 747 L 403.5 725 L 410.5 723 L 416.5 723 L 425.5 726 L 441.5 737 L 451.5 737 L 461 730.5 L 463 727.5 Q 473.5 715 480 698.5 L 492.5 683 Q 497.4 676.4 510.5 678 Q 520.5 681.5 526 689.5 L 534 702 Q 536.7 700.9 536 703.5 Q 540.1 709.4 547.5 712 L 549.5 711 L 551.5 712 L 560 705.5 Q 567 694 571 679.5 L 581 637.5 L 584 613.5 L 587 600.5 L 587 593.5 L 589 586.5 L 589 579.5 L 591 573.5 L 591 565.5 L 592 564.5 L 595 533.5 L 597 525.5 L 598 510.5 L 599 509.5 L 599 499.5 L 602 483.5 L 602 481.5 L 604 459.5 L 605 458.5 L 605 449.5 L 608 436.5 L 609 423.5 L 614 408.5 L 618 403 L 625.5 399 Z " /><path fill="rgb(43,196,247)" stroke="rgb(43,196,247)" stroke-width="1" opacity="0.9764705882352941" d="M 625 189 L 629 189 L 629 190.5 L 649 228.5 L 679 274.5 Q 705.8 313.2 736 348.5 L 737 351.5 L 774 395.5 L 784 410 Q 786.7 408.9 786 411.5 L 813 444.5 L 814 448 Q 816.7 446.9 816 449.5 L 824 459.5 L 825 463 L 828 464.5 L 866 522.5 L 867 526.5 L 882 552.5 L 903 603.5 L 913 637.5 L 922 685.5 L 923 705.5 L 924 706.5 L 924 752 L 1072.5 752 L 1076.5 753 L 1081.5 752 L 1082.5 753 L 1094.5 753 Q 1095.7 750.8 1100.5 752 L 1101.5 753 L 1160.5 753 L 1166 756.5 L 1166 764.5 L 1164.5 766 L 1161.5 768 L 1074.5 768 L 1070.5 769 L 1067.5 768 L 1065.5 768 L 1015.5 769 Q 1014.3 766.7 1009.5 768 L 1008.5 769 L 967.5 769 Q 966 766.5 960.5 768 L 959.5 769 L 951.5 769 L 950.5 768 L 923.5 768 L 921 770.5 L 919 790.5 L 913 816.5 L 904 844.5 L 897 860.5 L 879 893.5 L 859 921.5 L 849.5 932 Q 847.3 931.3 848 933.5 L 838.5 944 Q 836.3 943.3 837 945.5 L 825 955 Q 826.1 957.7 823.5 957 L 816.5 964 L 782.5 988 L 736.5 1011 L 686.5 1026 L 669.5 1029 L 654.5 1030 L 653.5 1031 L 651.5 1031 L 602.5 1031 L 601.5 1030 L 585.5 1029 L 573.5 1026 L 568.5 1026 L 525.5 1014 L 501.5 1004 L 476.5 991 Q 450.8 975.7 429 956.5 Q 429.8 954.3 427.5 955 L 413 941.5 Q 413.8 939.3 411.5 940 L 402 928 Q 399.3 929.1 400 926.5 Q 386.4 912.6 376 895.5 L 354 854.5 L 342 822.5 L 341 814.5 L 339 810.5 L 334 788.5 L 332 770.5 L 330.5 769 L 327.5 768 L 182.5 768 Q 180.8 770.8 174.5 769 L 173.5 768 L 96.5 768 L 92 765.5 Q 89.2 763.8 90 758.5 L 94.5 753 L 120.5 753 L 121.5 752 L 328.5 752 L 330 750.5 Q 331.6 740.4 329 734.5 L 330 729.5 L 330 727.5 L 331 692.5 L 332 691.5 L 332 683.5 L 338 649.5 L 350 606.5 L 368 561.5 L 387 524.5 L 411 486.5 L 472 406 Q 474.7 407.1 474 404.5 L 484 391 L 487 389.5 L 513 357.5 L 515 353 Q 517.7 354.1 517 351.5 L 518 349 L 521 347.5 L 560 297.5 L 560 295 Q 562.7 296.1 562 293.5 L 582 266.5 L 602 235.5 L 602 233.5 L 621 201.5 L 625 192.5 L 625 189 Z M 626 399 L 618 403 L 614 409 L 609 424 L 608 437 L 605 450 L 605 459 L 604 460 L 602 482 L 602 484 L 599 500 L 599 510 L 598 511 L 597 526 L 595 534 L 592 565 L 591 566 L 591 574 L 589 580 L 589 587 L 587 594 L 587 601 L 584 614 L 581 638 L 571 680 Q 567 694 560 706 L 552 712 L 550 711 L 548 712 Q 540 709 536 704 Q 537 701 534 702 L 526 690 Q 521 682 511 678 Q 497 676 493 683 L 480 699 Q 474 715 463 728 L 461 731 L 452 737 L 442 737 L 426 726 L 417 723 L 411 723 L 404 725 L 376 747 L 354 757 L 355 762 Q 358 765 365 764 L 367 764 Q 378 761 386 755 Q 388 756 387 753 L 391 752 L 405 739 L 412 736 L 420 737 L 432 746 L 443 750 Q 458 751 465 744 L 475 734 L 498 694 L 504 691 L 506 691 L 513 693 L 526 712 Q 534 722 549 725 L 558 723 L 567 717 L 579 698 L 586 675 L 598 616 L 599 603 L 602 590 L 603 575 L 603 573 L 605 566 L 607 540 L 609 533 L 611 507 L 611 505 L 613 499 L 613 490 L 614 489 L 619 443 L 625 416 L 625 414 L 629 414 L 633 430 L 636 455 L 637 456 L 637 463 L 639 470 L 642 506 L 645 523 L 648 555 L 648 557 L 650 565 L 650 573 L 651 574 L 654 602 L 656 609 L 656 616 L 667 672 L 675 698 L 686 716 Q 691 721 700 724 L 712 724 L 720 720 L 728 712 L 740 694 L 744 692 L 747 692 L 749 692 L 751 691 L 755 693 L 781 736 L 783 739 L 786 740 L 787 743 L 798 749 L 808 751 L 822 747 L 836 737 Q 846 736 851 740 L 873 759 L 887 764 L 900 765 L 903 760 L 902 757 L 898 753 Q 885 753 879 747 L 857 729 L 844 723 Q 835 722 830 725 L 812 737 Q 800 738 795 732 L 786 722 Q 778 704 768 690 Q 763 682 753 678 Q 740 677 736 682 Q 724 691 717 705 Q 714 710 707 712 Q 700 713 699 709 L 696 707 L 687 693 L 675 648 L 675 643 L 671 626 L 671 620 L 669 614 L 667 593 L 665 587 L 663 563 L 661 557 L 659 533 L 657 525 L 656 508 L 653 491 L 653 483 L 652 482 L 652 474 L 650 466 L 649 451 L 648 450 L 648 442 L 646 436 L 644 420 L 641 411 L 637 405 L 632 400 L 626 399 Z " /></svg>